Coordinates
version=1
nRows=7
nColumns=40
inDegrees=yes

Units are S.I. units (second, meters, Newtons, ...)
If the header above contains a line with 'inDegrees', this indicates whether rotational values are in degrees (yes) or radians (no).

endheader
time	pelvis_tilt	pelvis_list	pelvis_rotation	pelvis_tx	pelvis_ty	pelvis_tz	hip_flexion_r	hip_adduction_r	hip_rotation_r	knee_angle_r	knee_angle_r_beta	ankle_angle_r	subtalar_angle_r	mtp_angle_r	hip_flexion_l	hip_adduction_l	hip_rotation_l	knee_angle_l	knee_angle_l_beta	ankle_angle_l	subtalar_angle_l	mtp_angle_l	lumbar_extension	lumbar_bending	lumbar_rotation	arm_flex_r	arm_add_r	arm_rot_r	elbow_flex_r	pro_sup_r	wrist_flex_r	wrist_dev_r	arm_flex_l	arm_add_l	arm_rot_l	elbow_flex_l	pro_sup_l	wrist_flex_l	wrist_dev_l
      0.31500000	     -6.03050731	     -5.95839179	     -0.87829515	      0.79078485	      1.01830477	      0.60404193	     35.68633058	      6.26679825	     -5.90669299	     29.85309042	      0.52103472	      4.20967579	      0.00000000	      0.00000000	    -16.51935673	     -4.94985207	     -3.54213066	     21.39220740	      0.37336445	    -19.11675923	      0.00000000	      0.00000000	     -2.40699477	      7.26373036	    -20.09218667	    -32.46552064	    -20.13126792	     11.32387885	     62.80267557	     53.05170994	      0.00000000	      0.00000000	     -6.25455292	    -15.13478560	      9.71897451	    106.71908018	     65.47303094	      0.00000000	      0.00000000
      0.32000000	     -6.41747671	     -5.76053944	     -0.88289081	      0.80735928	      1.01929762	      0.60491925	     35.28304063	      6.23186282	     -6.09213062	     26.99344437	      0.47112448	      4.06622926	      0.00000000	      0.00000000	    -16.43455200	     -4.77197898	     -2.71429347	     21.75648454	      0.37972229	    -20.44709399	      0.00000000	      0.00000000	     -1.74596170	      7.04240688	    -20.42998657	    -33.01855768	    -20.02592618	     10.95512252	     63.10183688	     53.06496432	      0.00000000	      0.00000000	     -6.42009568	    -15.26260699	     10.01376010	    106.95710253	     65.61053231	      0.00000000	      0.00000000
      0.32500000	     -6.74089773	     -5.47415020	     -0.89441850	      0.82402052	      1.02003707	      0.60566895	     34.93862775	      6.08740008	     -6.15533784	     24.55422468	      0.42855207	      4.07256472	      0.00000000	      0.00000000	    -16.28453376	     -4.43271395	     -1.69727382	     22.47952697	      0.39234176	    -21.26332038	      0.00000000	      0.00000000	     -1.11934572	      6.74601024	    -20.66812209	    -33.51475638	    -19.94069369	     10.73865130	     63.25951666	     53.07156799	      0.00000000	      0.00000000	     -6.63802126	    -15.25787525	     10.29012754	    107.10061034	     65.72048479	      0.00000000	      0.00000000
      0.33000000	     -7.26194429	     -5.41516828	     -0.92999333	      0.84062230	      1.02029482	      0.60664483	     34.71325606	      6.21983388	     -6.27886878	     21.95980921	      0.38327097	      3.48855656	      0.00000000	      0.00000000	    -15.81622488	     -4.38048851	     -0.81882298	     23.43660815	      0.40904598	    -22.11108320	      0.00000000	      0.00000000	     -0.27880249	      6.72079881	    -20.67366066	    -34.40923186	    -19.49858014	      9.26010995	     64.12853490	     53.03999310	      0.00000000	      0.00000000	     -6.58414299	    -15.54856917	     11.40185567	    107.13955666	     66.14062643	      0.00000000	      0.00000000
      0.33500000	     -7.45962788	     -5.16782817	     -0.85783995	      0.85693417	      1.02070809	      0.60741557	     34.23195221	      6.11572847	     -6.28872537	     19.78668471	      0.34534280	      3.39569602	      0.00000000	      0.00000000	    -15.59008737	     -4.09949189	      0.39224470	     24.59915303	      0.42933621	    -22.31689397	      0.00000000	      0.00000000	      0.13848032	      6.44331830	    -20.95055547	    -34.67112903	    -19.39083333	      9.23841157	     64.14097298	     53.04087481	      0.00000000	      0.00000000	     -6.70454194	    -15.60664707	     11.58898923	    107.35966267	     66.23539549	      0.00000000	      0.00000000
      0.34000000	     -7.74727577	     -5.07496181	     -0.81328590	      0.87302328	      1.02079821	      0.60829157	     33.85903488	      6.20398518	     -5.92450628	     17.64872438	      0.30802835	      2.80720371	      0.00000000	      0.00000000	    -15.06416982	     -4.03012639	      1.33513515	     26.14686728	      0.45634892	    -22.05113047	      0.00000000	      0.00000000	      0.63874064	      6.34364537	    -21.24069107	    -34.82286466	    -19.32106722	      9.08094979	     64.16739498	     53.02505041	      0.00000000	      0.00000000	     -6.95322106	    -15.77835104	     12.03374895	    107.55986392	     66.40071822	      0.00000000	      0.00000000
      0.34500000	     -7.90379264	     -4.90143392	     -0.80135634	      0.88889221	      1.02072902	      0.60911454	     33.46111530	      6.20023667	     -5.71752902	     15.91862932	      0.27783249	      2.87409441	      0.00000000	      0.00000000	    -14.61129616	     -3.80048290	      2.21384676	     27.95338969	      0.48787869	    -21.53511356	      0.00000000	      0.00000000	      0.87435288	      6.18231649	    -21.43682721	    -34.89882318	    -19.13110430	      8.98174529	     64.21383096	     53.02157575	      0.00000000	      0.00000000	     -7.01364758	    -15.85119337	     12.36284673	    107.75513462	     66.53135234	      0.00000000	      0.00000000
